<?xml version="1.0" encoding="UTF-8" standalone="no"?><svg xmlns="http://www.w3.org/2000/svg" xmlns:xlink="http://www.w3.org/1999/xlink" contentScriptType="application/ecmascript" contentStyleType="text/css" height="442px" preserveAspectRatio="none" style="width:5613px;height:442px;" version="1.1" viewBox="0 0 5613 442" width="5613px" zoomAndPan="magnify"><defs><filter height="300%" id="flafupyp2z2nq" width="300%" x="-1" y="-1"><feGaussianBlur result="blurOut" stdDeviation="2.0"/><feColorMatrix in="blurOut" result="blurOut2" type="matrix" values="0 0 0 0 0 0 0 0 0 0 0 0 0 0 0 0 0 0 .4 0"/><feOffset dx="4.0" dy="4.0" in="blurOut2" result="blurOut3"/><feBlend in="SourceGraphic" in2="blurOut3" mode="normal"/></filter></defs><g><text fill="#000000" font-family="sans-serif" font-size="18" lengthAdjust="spacingAndGlyphs" textLength="55" x="2779" y="16.708">EMMT</text><rect fill="#FEFECE" filter="url(#flafupyp2z2nq)" height="106.1406" rx="12.5" ry="12.5" style="stroke: #A80036; stroke-width: 1.5;" width="283" x="3008.5" y="28.9531"/><line style="stroke: #A80036; stroke-width: 1.5;" x1="3008.5" x2="3291.5" y1="55.25" y2="55.25"/><text fill="#000000" font-family="sans-serif" font-size="14" lengthAdjust="spacingAndGlyphs" textLength="152" x="3074" y="46.9482">Экран ввода формул</text><text fill="#000000" font-family="sans-serif" font-size="12" lengthAdjust="spacingAndGlyphs" textLength="158" x="3013.5" y="71.3887">[Глобальное состояние]</text><text fill="#000000" font-family="sans-serif" font-size="12" lengthAdjust="spacingAndGlyphs" textLength="137" x="3013.5" y="85.3574">Нет активного бокса</text><text fill="#000000" font-family="sans-serif" font-size="12" lengthAdjust="spacingAndGlyphs" textLength="214" x="3013.5" y="99.3262">Приложение ждет ввода игрока</text><text fill="#000000" font-family="sans-serif" font-size="12" lengthAdjust="spacingAndGlyphs" textLength="263" x="3013.5" y="113.2949">Изначально доступен один пустой бокс</text><text fill="#000000" font-family="sans-serif" font-size="12" lengthAdjust="spacingAndGlyphs" textLength="0" x="3017.5" y="127.2637"/><rect fill="#FEFECE" filter="url(#flafupyp2z2nq)" height="64.2344" rx="12.5" ry="12.5" style="stroke: #A80036; stroke-width: 1.5;" width="476" x="6" y="218.9531"/><line style="stroke: #A80036; stroke-width: 1.5;" x1="6" x2="482" y1="245.25" y2="245.25"/><text fill="#000000" font-family="sans-serif" font-size="14" lengthAdjust="spacingAndGlyphs" textLength="91" x="198.5" y="236.9482">Ввод текста</text><text fill="#000000" font-family="sans-serif" font-size="12" lengthAdjust="spacingAndGlyphs" textLength="456" x="11" y="261.3887">Всплывает окошко поверх основного интерфейса для набора текста</text><text fill="#000000" font-family="sans-serif" font-size="12" lengthAdjust="spacingAndGlyphs" textLength="289" x="11" y="275.3574">Доступны - ввод текста, кнопки ОК, ОТМЕНА</text><rect fill="#FEFECE" filter="url(#flafupyp2z2nq)" height="64.2344" rx="12.5" ry="12.5" style="stroke: #A80036; stroke-width: 1.5;" width="422" x="4024" y="366.9531"/><line style="stroke: #A80036; stroke-width: 1.5;" x1="4024" x2="4446" y1="393.25" y2="393.25"/><text fill="#000000" font-family="sans-serif" font-size="14" lengthAdjust="spacingAndGlyphs" textLength="193" x="4138.5" y="384.9482">Добавление текста в бокс</text><text fill="#000000" font-family="sans-serif" font-size="12" lengthAdjust="spacingAndGlyphs" textLength="300" x="4029" y="409.3887">Первый символ добавляется в активный бокс.</text><text fill="#000000" font-family="sans-serif" font-size="12" lengthAdjust="spacingAndGlyphs" textLength="402" x="4029" y="423.3574">Для остальных символов для каждого создается новый бокс.</text><rect fill="#FEFECE" filter="url(#flafupyp2z2nq)" height="50.2656" rx="12.5" ry="12.5" style="stroke: #A80036; stroke-width: 1.5;" width="380" x="517" y="225.9531"/><line style="stroke: #A80036; stroke-width: 1.5;" x1="517" x2="897" y1="252.25" y2="252.25"/><text fill="#000000" font-family="sans-serif" font-size="14" lengthAdjust="spacingAndGlyphs" textLength="187" x="613.5" y="243.9482">Добавление бокса справа</text><text fill="#000000" font-family="sans-serif" font-size="12" lengthAdjust="spacingAndGlyphs" textLength="360" x="522" y="268.3887">Справа от активного бокса добавляется новый пустой</text><rect fill="#FEFECE" filter="url(#flafupyp2z2nq)" height="50.2656" rx="12.5" ry="12.5" style="stroke: #A80036; stroke-width: 1.5;" width="694" x="932" y="225.9531"/><line style="stroke: #A80036; stroke-width: 1.5;" x1="932" x2="1626" y1="252.25" y2="252.25"/><text fill="#000000" font-family="sans-serif" font-size="14" lengthAdjust="spacingAndGlyphs" textLength="188" x="1185" y="243.9482">Добавление бокса сверху</text><text fill="#000000" font-family="sans-serif" font-size="12" lengthAdjust="spacingAndGlyphs" textLength="674" x="937" y="268.3887">Сверху от активного бокса добавляется новый пустой меньшего размера (вехний индекс в формуле).</text><rect fill="#FEFECE" filter="url(#flafupyp2z2nq)" height="50.2656" rx="12.5" ry="12.5" style="stroke: #A80036; stroke-width: 1.5;" width="700" x="1661" y="225.9531"/><line style="stroke: #A80036; stroke-width: 1.5;" x1="1661" x2="2361" y1="252.25" y2="252.25"/><text fill="#000000" font-family="sans-serif" font-size="14" lengthAdjust="spacingAndGlyphs" textLength="151" x="1935.5" y="243.9482">Добавление степени</text><text fill="#000000" font-family="sans-serif" font-size="12" lengthAdjust="spacingAndGlyphs" textLength="680" x="1666" y="268.3887">Сверху справа от активного бокса добавляется новый пустой меньшего размера (степень в формуле).</text><rect fill="#FEFECE" filter="url(#flafupyp2z2nq)" height="50.2656" rx="12.5" ry="12.5" style="stroke: #A80036; stroke-width: 1.5;" width="687" x="2396.5" y="225.9531"/><line style="stroke: #A80036; stroke-width: 1.5;" x1="2396.5" x2="3083.5" y1="252.25" y2="252.25"/><text fill="#000000" font-family="sans-serif" font-size="14" lengthAdjust="spacingAndGlyphs" textLength="217" x="2631.5" y="243.9482">Добавление нижнего индекса</text><text fill="#000000" font-family="sans-serif" font-size="12" lengthAdjust="spacingAndGlyphs" textLength="667" x="2401.5" y="268.3887">Снизу справа от активного бокса добавляется новый пустой меньшего размера (индекс в формуле).</text><rect fill="#FEFECE" filter="url(#flafupyp2z2nq)" height="50.2656" rx="12.5" ry="12.5" style="stroke: #A80036; stroke-width: 1.5;" width="677" x="3118.5" y="225.9531"/><line style="stroke: #A80036; stroke-width: 1.5;" x1="3118.5" x2="3795.5" y1="252.25" y2="252.25"/><text fill="#000000" font-family="sans-serif" font-size="14" lengthAdjust="spacingAndGlyphs" textLength="185" x="3364.5" y="243.9482">Добавление знаменателя</text><text fill="#000000" font-family="sans-serif" font-size="12" lengthAdjust="spacingAndGlyphs" textLength="657" x="3123.5" y="268.3887">Снизу от активного бокса добавляется новый пустой такого же размера (знаменатель в формуле).</text><rect fill="#FEFECE" filter="url(#flafupyp2z2nq)" height="50.2656" rx="12.5" ry="12.5" style="stroke: #A80036; stroke-width: 1.5;" width="434" x="3831" y="225.9531"/><line style="stroke: #A80036; stroke-width: 1.5;" x1="3831" x2="4265" y1="252.25" y2="252.25"/><text fill="#000000" font-family="sans-serif" font-size="14" lengthAdjust="spacingAndGlyphs" textLength="148" x="3974" y="243.9482">Смещение формулы</text><text fill="#000000" font-family="sans-serif" font-size="12" lengthAdjust="spacingAndGlyphs" textLength="414" x="3836" y="268.3887">Формула на экране смещается в сторону обратную движению</text><rect fill="#FEFECE" filter="url(#flafupyp2z2nq)" height="78.2031" rx="12.5" ry="12.5" style="stroke: #A80036; stroke-width: 1.5;" width="484" x="4300" y="211.9531"/><line style="stroke: #A80036; stroke-width: 1.5;" x1="4300" x2="4784" y1="238.25" y2="238.25"/><text fill="#000000" font-family="sans-serif" font-size="14" lengthAdjust="spacingAndGlyphs" textLength="378" x="4353" y="229.9482">Добавление много-боксовой формулы (sin, cos, ln...)</text><text fill="#000000" font-family="sans-serif" font-size="12" lengthAdjust="spacingAndGlyphs" textLength="426" x="4305" y="254.3887">На месте активного бокса создается нужное количество боксов</text><text fill="#000000" font-family="sans-serif" font-size="12" lengthAdjust="spacingAndGlyphs" textLength="294" x="4305" y="268.3574">Создается пустой бокс в центре фоормлулы</text><text fill="#000000" font-family="sans-serif" font-size="12" lengthAdjust="spacingAndGlyphs" textLength="464" x="4305" y="282.3262">Этот набор боксов воспринимается как один при дальнейшей работе</text><rect fill="#FEFECE" filter="url(#flafupyp2z2nq)" height="64.2344" rx="12.5" ry="12.5" style="stroke: #A80036; stroke-width: 1.5;" width="359" x="4819.5" y="218.9531"/><line style="stroke: #A80036; stroke-width: 1.5;" x1="4819.5" x2="5178.5" y1="245.25" y2="245.25"/><text fill="#000000" font-family="sans-serif" font-size="14" lengthAdjust="spacingAndGlyphs" textLength="116" x="4941" y="236.9482">Удаление бокса</text><text fill="#000000" font-family="sans-serif" font-size="12" lengthAdjust="spacingAndGlyphs" textLength="228" x="4824.5" y="261.3887">Бокс или группа боксов удаляются</text><text fill="#000000" font-family="sans-serif" font-size="12" lengthAdjust="spacingAndGlyphs" textLength="339" x="4824.5" y="275.3574">Если в боксе был текст, бокс заменяется на пустой.</text><rect fill="#FEFECE" filter="url(#flafupyp2z2nq)" height="78.2031" rx="12.5" ry="12.5" style="stroke: #A80036; stroke-width: 1.5;" width="347" x="5213.5" y="211.9531"/><line style="stroke: #A80036; stroke-width: 1.5;" x1="5213.5" x2="5560.5" y1="238.25" y2="238.25"/><text fill="#000000" font-family="sans-serif" font-size="14" lengthAdjust="spacingAndGlyphs" textLength="191" x="5291.5" y="229.9482">Перевод формулы в Latex</text><text fill="#000000" font-family="sans-serif" font-size="12" lengthAdjust="spacingAndGlyphs" textLength="253" x="5218.5" y="254.3887">Текущая формула переводится в latex</text><text fill="#000000" font-family="sans-serif" font-size="12" lengthAdjust="spacingAndGlyphs" textLength="248" x="5218.5" y="268.3574">Сохраняется в соответсвующий файл</text><text fill="#000000" font-family="sans-serif" font-size="12" lengthAdjust="spacingAndGlyphs" textLength="327" x="5218.5" y="282.3262">Выводится сообщение с получившейся формулой</text><!--MD5=[0963cd8a5a09bf8eaeea3f79ed2fe926]
link main to long_type--><path d="M3008.46,83.5561 C2450.17,86.3811 425.294,101.0101 305,164.9531 C285.039,175.5631 270.07,195.9461 259.956,214.0921 " fill="none" id="main-&gt;long_type" style="stroke: #A80036; stroke-width: 1.0;"/><polygon fill="#A80036" points="257.489,218.6501,265.2908,212.6392,259.869,214.2529,258.2553,208.8311,257.489,218.6501" style="stroke: #A80036; stroke-width: 1.0;"/><text fill="#000000" font-family="sans-serif" font-size="13" lengthAdjust="spacingAndGlyphs" textLength="294" x="306" y="178.02">Долгое нажатие на любой свободный бокс</text><!--MD5=[dc6361998b9a22724239ee2afd98d75a]
link long_type to main--><path d="M409.017,218.8961 C531.943,195.9671 683.57,168.1991 714,164.9531 C1161.55,117.2061 2547.38,92.1901 3003.09,85.0971 " fill="none" id="long_type-&gt;main" style="stroke: #A80036; stroke-width: 1.0;"/><polygon fill="#A80036" points="3008.41,85.0141,2999.3428,81.169,3003.4107,85.0998,2999.4799,89.1678,3008.41,85.0141" style="stroke: #A80036; stroke-width: 1.0;"/><text fill="#000000" font-family="sans-serif" font-size="13" lengthAdjust="spacingAndGlyphs" textLength="157" x="715" y="178.02">Тап по кнопке ОТМЕНА</text><!--MD5=[0bf88e065352968f522bc1c20485354f]
link long_type to long_type_ok--><path d="M435.163,282.9551 C456.654,285.6911 478.268,288.1151 499,289.9531 C1189.51,351.1642 3329.89,385.4315 4018.93,395.0912 " fill="none" id="long_type-&gt;long_type_ok" style="stroke: #A80036; stroke-width: 1.0;"/><polygon fill="#A80036" points="4023.96,395.1617,4015.0181,391.0336,4018.9605,395.0903,4014.9038,399.0327,4023.96,395.1617" style="stroke: #A80036; stroke-width: 1.0;"/><text fill="#000000" font-family="sans-serif" font-size="13" lengthAdjust="spacingAndGlyphs" textLength="121" x="1387" y="333.02">Тап по кнопке ОК</text><!--MD5=[260a1ea30e412ddffca8d2fc29226712]
link long_type_ok to main--><path d="M4446.35,396.3379 C4805.37,391.3751 5502.97,371.2576 5578,289.9531 C5601.51,264.4761 5600.24,238.5501 5578,211.9531 C5504.58,124.1301 3811.94,92.5151 3297.17,84.9121 " fill="none" id="long_type_ok-&gt;main" style="stroke: #A80036; stroke-width: 1.0;"/><polygon fill="#A80036" points="3291.92,84.8351,3300.8619,88.9633,3296.9195,84.9066,3300.9762,80.9641,3291.92,84.8351" style="stroke: #A80036; stroke-width: 1.0;"/><!--MD5=[7916509758503b78f9af637aa84ec0a6]
link main to swipe_right--><path d="M3008.43,82.6661 C2586.96,82.6881 1345.06,89.3521 948,164.9531 C883.531,177.2281 813.102,203.6961 765.125,223.8581 " fill="none" id="main-&gt;swipe_right" style="stroke: #A80036; stroke-width: 1.0;"/><polygon fill="#A80036" points="760.262,225.9121,770.1092,226.0944,764.8679,223.9663,766.9959,218.725,760.262,225.9121" style="stroke: #A80036; stroke-width: 1.0;"/><text fill="#000000" font-family="sans-serif" font-size="13" lengthAdjust="spacingAndGlyphs" textLength="211" x="949" y="178.02">Свайп вправо от лююого бокса</text><!--MD5=[b9d52cd60021ca90b86a58bee1a58189]
link swipe_right to main--><path d="M826.541,225.9491 C855.111,220.7831 885.569,215.7441 914,211.9531 C1162.01,178.8801 1225.34,181.5171 1475,164.9531 C2039.44,127.5041 2711.93,99.6661 3003.34,88.4221 " fill="none" id="swipe_right-&gt;main" style="stroke: #A80036; stroke-width: 1.0;"/><polygon fill="#A80036" points="3008.45,88.2251,2999.3076,84.5622,3003.4535,88.4109,2999.6048,92.5567,3008.45,88.2251" style="stroke: #A80036; stroke-width: 1.0;"/><!--MD5=[6811c1da6884a9ad9311da3c195dadc7]
link main to swipe_up--><path d="M3008.48,85.6521 C2671.45,92.8151 1828.73,115.2581 1551,164.9531 C1479.03,177.8321 1399.5,204.1691 1345.13,224.1341 " fill="none" id="main-&gt;swipe_up" style="stroke: #A80036; stroke-width: 1.0;"/><polygon fill="#A80036" points="1340.28,225.9241,1350.1097,226.5386,1344.9668,224.1824,1347.323,219.0396,1340.28,225.9241" style="stroke: #A80036; stroke-width: 1.0;"/><text fill="#000000" font-family="sans-serif" font-size="13" lengthAdjust="spacingAndGlyphs" textLength="204" x="1552" y="178.02">Свайп вверх от лююого бокса</text><!--MD5=[5008d0cec140b4e57290253c35269487]
link swipe_up to main--><path d="M1504.68,225.9501 C1550.45,221.2071 1598.26,216.3411 1643,211.9531 C2141.41,163.0621 2733.61,115.4211 3003.22,94.3031 " fill="none" id="swipe_up-&gt;main" style="stroke: #A80036; stroke-width: 1.0;"/><polygon fill="#A80036" points="3008.35,93.9011,2999.0682,90.6074,3003.3649,94.2869,2999.6854,98.5836,3008.35,93.9011" style="stroke: #A80036; stroke-width: 1.0;"/><!--MD5=[f0fd54e31e36245be0259b660544cd34]
link main to swipe_up_right--><path d="M3008.36,90.0461 C2785.05,102.1281 2361.47,128.9341 2215,164.9531 C2160.94,178.2481 2102.62,203.7791 2062.24,223.4041 " fill="none" id="main-&gt;swipe_up_right" style="stroke: #A80036; stroke-width: 1.0;"/><polygon fill="#A80036" points="2057.41,225.7671,2067.2521,225.4016,2061.9005,223.5683,2063.7339,218.2167,2057.41,225.7671" style="stroke: #A80036; stroke-width: 1.0;"/><text fill="#000000" font-family="sans-serif" font-size="13" lengthAdjust="spacingAndGlyphs" textLength="253" x="2216" y="178.02">Свайп вправо вверх от любого бокса</text><!--MD5=[9a8eea259c4fa0e7ccfa644f5ecd2cd7]
link swipe_up_right to main--><path d="M2175.13,225.8881 C2397.35,193.3071 2790.53,135.6581 3003.34,104.4561 " fill="none" id="swipe_up_right-&gt;main" style="stroke: #A80036; stroke-width: 1.0;"/><polygon fill="#A80036" points="3008.33,103.7241,2998.8432,101.0781,3003.3834,104.4526,3000.0088,108.9927,3008.33,103.7241" style="stroke: #A80036; stroke-width: 1.0;"/><!--MD5=[3897ae2296d4d503b05e0b190df54d79]
link main to swipe_up_down--><path d="M3008.28,101.0121 C2919.08,114.8491 2814.35,136.4181 2779,164.9531 C2761.79,178.8421 2751.86,202.0111 2746.32,220.6541 " fill="none" id="main-&gt;swipe_up_down" style="stroke: #A80036; stroke-width: 1.0;"/><polygon fill="#A80036" points="2744.88,225.7811,2751.1719,218.204,2746.2366,220.9687,2743.472,216.0334,2744.88,225.7811" style="stroke: #A80036; stroke-width: 1.0;"/><text fill="#000000" font-family="sans-serif" font-size="13" lengthAdjust="spacingAndGlyphs" textLength="243" x="2780" y="178.02">Свайп вправо вниз от любого бокса</text><!--MD5=[8de10df8efcdd23bcfc09f62c75f696d]
link swipe_up_down to main--><path d="M2898.38,225.9501 C2941.78,215.8351 2987.89,201.6671 3028,181.9531 C3050.76,170.7681 3073.08,154.6501 3092.27,138.6581 " fill="none" id="swipe_up_down-&gt;main" style="stroke: #A80036; stroke-width: 1.0;"/><polygon fill="#A80036" points="3096.58,135.0341,3087.1227,137.7834,3092.7594,138.2595,3092.2833,143.8963,3096.58,135.0341" style="stroke: #A80036; stroke-width: 1.0;"/><!--MD5=[76d9fba2ec528b1c82687d9cced8f365]
link main to swipe_down--><path d="M3135.87,135.0431 C3134.44,151.5961 3136.55,168.9571 3147,181.9531 C3162.15,200.7871 3203.33,214.6981 3250.91,224.8491 " fill="none" id="main-&gt;swipe_down" style="stroke: #A80036; stroke-width: 1.0;"/><polygon fill="#A80036" points="3255.84,225.8821,3247.8393,220.1385,3250.9441,224.8672,3246.2154,227.972,3255.84,225.8821" style="stroke: #A80036; stroke-width: 1.0;"/><text fill="#000000" font-family="sans-serif" font-size="13" lengthAdjust="spacingAndGlyphs" textLength="191" x="3148" y="178.02">Свайп вниз от любого бокса</text><!--MD5=[9effd8a30e4a1822c1510d123b6784df]
link swipe_down to main--><path d="M3429.09,225.8871 C3407,207.6251 3374.85,182.7141 3344,164.9531 C3326.91,155.1131 3308.41,145.7801 3289.86,137.1771 " fill="none" id="swipe_down-&gt;main" style="stroke: #A80036; stroke-width: 1.0;"/><polygon fill="#A80036" points="3285.14,135.0061,3291.6493,142.3973,3289.6837,137.0929,3294.9881,135.1273,3285.14,135.0061" style="stroke: #A80036; stroke-width: 1.0;"/><!--MD5=[7e56e04eb985ed7a3d32b99eab05cb1e]
link main to swipe_not_box--><path d="M3291.55,130.1591 C3322.23,141.0581 3354.36,152.9831 3384,164.9531 C3400.78,171.7311 3403.48,177.4141 3421,181.9531 C3590.15,225.7811 3639.49,191.3221 3813,211.9531 C3843.26,215.5511 3875.58,220.2291 3906.27,225.0661 " fill="none" id="main-&gt;swipe_not_box" style="stroke: #A80036; stroke-width: 1.0;"/><polygon fill="#A80036" points="3911.58,225.9071,3903.3203,220.5427,3906.6421,225.1215,3902.0633,228.4433,3911.58,225.9071" style="stroke: #A80036; stroke-width: 1.0;"/><text fill="#000000" font-family="sans-serif" font-size="13" lengthAdjust="spacingAndGlyphs" textLength="414" x="3422" y="178.02">Свайп в любую сторону на боксе и не в правой части экрана</text><!--MD5=[af7f6977473cc6a796db37f4e49cebbf]
link swipe_not_box to main--><path d="M3990.53,225.9081 C3932,201.4841 3848.73,166.9591 3841,164.9531 C3656.96,117.2001 3438.04,97.1701 3296.69,88.8241 " fill="none" id="swipe_not_box-&gt;main" style="stroke: #A80036; stroke-width: 1.0;"/><polygon fill="#A80036" points="3291.69,88.5321,3300.4338,93.0649,3296.681,88.8321,3300.9138,85.0793,3291.69,88.5321" style="stroke: #A80036; stroke-width: 1.0;"/><!--MD5=[1cadcf097a33b29086c7c96f384b85ff]
link main to menu_type--><path d="M3291.61,85.0871 C3441.02,90.4941 3682.08,108.2511 3882,164.9531 C3899.02,169.7811 3900.91,177.3751 3918,181.9531 C4074.8,223.9511 4120.72,193.5401 4282,211.9531 C4286.23,212.4371 4290.51,212.9351 4294.81,213.4481 " fill="none" id="main-&gt;menu_type" style="stroke: #A80036; stroke-width: 1.0;"/><polygon fill="#A80036" points="4299.87,214.0551,4291.4007,209.0281,4294.9044,213.4693,4290.4633,216.973,4299.87,214.0551" style="stroke: #A80036; stroke-width: 1.0;"/><text fill="#000000" font-family="sans-serif" font-size="13" lengthAdjust="spacingAndGlyphs" textLength="596" x="3919" y="178.02">Перетаскивание формулы (функции) из правого верхнего раздела меню в любой бокс</text><!--MD5=[8ef5e6a012503906be35c5a0ce0d2ed5]
link menu_type to main--><path d="M4541.71,211.5761 C4539.45,194.6961 4533.65,176.1901 4520,164.9531 C4427.31,88.6601 3631.48,81.6701 3297.05,82.1491 " fill="none" id="menu_type-&gt;main" style="stroke: #A80036; stroke-width: 1.0;"/><polygon fill="#A80036" points="3291.68,82.1571,3300.6914,86.1314,3296.68,82.1428,3300.6685,78.1314,3291.68,82.1571" style="stroke: #A80036; stroke-width: 1.0;"/><!--MD5=[926aad6b3879e47c4a45266bf41224af]
link main to swipe_left--><path d="M3291.72,84.9411 C3545.55,89.9011 4094.13,106.9791 4553,164.9531 C4592.09,169.8911 4601.3,174.5671 4640,181.9531 C4711.5,195.5991 4729.48,198.4271 4801,211.9531 C4811.36,213.9131 4822.03,215.9381 4832.79,217.9861 " fill="none" id="main-&gt;swipe_left" style="stroke: #A80036; stroke-width: 1.0;"/><polygon fill="#A80036" points="4837.74,218.9281,4829.6398,213.3258,4832.827,217.9993,4828.1536,221.1865,4837.74,218.9281" style="stroke: #A80036; stroke-width: 1.0;"/><text fill="#000000" font-family="sans-serif" font-size="13" lengthAdjust="spacingAndGlyphs" textLength="201" x="4641" y="178.02">Свайп влево от любого бокса</text><!--MD5=[b8b161d7bd203da0ce4f7d12063345cd]
link swipe_left to main--><path d="M4956.17,218.8991 C4926.96,199.5621 4886.53,176.2801 4847,164.9531 C4700.29,122.9111 3681.67,95.2531 3296.8,86.1991 " fill="none" id="swipe_left-&gt;main" style="stroke: #A80036; stroke-width: 1.0;"/><polygon fill="#A80036" points="3291.74,86.0801,3300.6462,90.2848,3296.7387,86.1944,3300.8291,82.2869,3291.74,86.0801" style="stroke: #A80036; stroke-width: 1.0;"/><!--MD5=[4ba4e738cc7616412d7509b2f9e8810e]
link main to double_tap--><path d="M3291.67,84.4641 C3589.2,88.7691 4300.65,105.0071 4894,164.9531 C4998.84,175.5451 5115.05,195.1901 5208.29,212.9271 " fill="none" id="main-&gt;double_tap" style="stroke: #A80036; stroke-width: 1.0;"/><polygon fill="#A80036" points="5213.27,213.8781,5205.1855,208.2531,5208.3597,212.9355,5203.6773,216.1096,5213.27,213.8781" style="stroke: #A80036; stroke-width: 1.0;"/><text fill="#000000" font-family="sans-serif" font-size="13" lengthAdjust="spacingAndGlyphs" textLength="246" x="5018" y="178.02">Двойной тап в нижней части экрана</text><!--MD5=[4e6381440affd4d48d193a7e7d24c78f]
link double_tap to main--><path d="M5348.31,211.8301 C5327.73,194.1161 5300.93,174.8231 5273,164.9531 C5088.21,99.6581 3746.88,86.2621 3296.8,83.5951 " fill="none" id="double_tap-&gt;main" style="stroke: #A80036; stroke-width: 1.0;"/><polygon fill="#A80036" points="3291.54,83.5641,3300.517,87.6155,3296.5399,83.5927,3300.5627,79.6156,3291.54,83.5641" style="stroke: #A80036; stroke-width: 1.0;"/><!--MD5=[3d77753a53620d38b2527a5fbc5449b5]
@startuml
title EMMT


state main as "Экран ввода формул": [Глобальное состояние]\nНет активного бокса\nПриложение ждет ввода игрока\nИзначально доступен один пустой бокс\n
state long_type as "Ввод текста":Всплывает окошко поверх основного интерфейса для набора текста\nДоступны - ввод текста, кнопки ОК, ОТМЕНА
state long_type_ok as "Добавление текста в бокс":Первый символ добавляется в активный бокс.\nДля остальных символов для каждого создается новый бокс.
state swipe_right as "Добавление бокса справа":Справа от активного бокса добавляется новый пустой
state swipe_up as "Добавление бокса сверху":Сверху от активного бокса добавляется новый пустой меньшего размера (вехний индекс в формуле). 
state swipe_up_right as "Добавление степени":Сверху справа от активного бокса добавляется новый пустой меньшего размера (степень в формуле).
state swipe_up_down as "Добавление нижнего индекса":Снизу справа от активного бокса добавляется новый пустой меньшего размера (индекс в формуле).
state swipe_down as "Добавление знаменателя":Снизу от активного бокса добавляется новый пустой такого же размера (знаменатель в формуле).
state swipe_not_box as "Смещение формулы":Формула на экране смещается в сторону обратную движению
state menu_type as "Добавление много-боксовой формулы (sin, cos, ln...)":На месте активного бокса создается нужное количество боксов\nСоздается пустой бокс в центре фоормлулы\nЭтот набор боксов воспринимается как один при дальнейшей работе
state swipe_left as "Удаление бокса":Бокс или группа боксов удаляются\nЕсли в боксе был текст, бокс заменяется на пустой.
state double_tap as "Перевод формулы в Latex": Текущая формула переводится в latex\nСохраняется в соответсвующий файл\nВыводится сообщение с получившейся формулой

main - -> long_type: Долгое нажатие на любой свободный бокс
long_type - -> long_type_ok: Тап по кнопке ОК
long_type - -> main: Тап по кнопке ОТМЕНА
long_type_ok - -> main
main - -> swipe_right: Свайп вправо от лююого бокса
swipe_right - -> main
main - -> swipe_up: Свайп вверх от лююого бокса
swipe_up - -> main
main - -> swipe_up_right: Свайп вправо вверх от любого бокса
swipe_up_right - -> main
main - -> swipe_up_down: Свайп вправо вниз от любого бокса
swipe_up_down - -> main
main - -> swipe_down: Свайп вниз от любого бокса
swipe_down - -> main
main - -> swipe_not_box: Свайп в любую сторону на боксе и не в правой части экрана
swipe_not_box - -> main
main - -> menu_type: Перетаскивание формулы (функции) из правого верхнего раздела меню в любой бокс
menu_type - -> main
main - -> swipe_left: Свайп влево от любого бокса
swipe_left - -> main
main - -> double_tap: Двойной тап в нижней части экрана
double_tap - -> main
@enduml

PlantUML version 1.2020.08beta10(Unknown compile time)
(GPL source distribution)
Java Runtime: Java(TM) SE Runtime Environment
JVM: Java HotSpot(TM) 64-Bit Server VM
Java Version: 14.0.1+7
Operating System: Linux
Default Encoding: UTF-8
Language: en
Country: US
--></g></svg>